<?xml version="1.0" encoding="utf-8"?>
<!-- Generator: Adobe Illustrator 22.0.1, SVG Export Plug-In . SVG Version: 6.00 Build 0)  -->
<svg version="1.1" xmlns="http://www.w3.org/2000/svg" xmlns:xlink="http://www.w3.org/1999/xlink" x="0px" y="0px"
	 viewBox="0 0 511.6 438.5" style="enable-background:new 0 0 511.6 438.5;" xml:space="preserve">
<g>
	<g>
		<path d="M392.9,255.8h-18.3c-2.7,0-4.9,0.9-6.6,2.6c-1.7,1.7-2.6,3.9-2.6,6.6v91.4c0,12.6-4.5,23.3-13.4,32.3
			c-8.9,8.9-19.7,13.4-32.3,13.4H82.2c-12.6,0-23.3-4.5-32.3-13.4c-8.9-8.9-13.4-19.7-13.4-32.3V118.8c0-12.6,4.5-23.3,13.4-32.3
			c8.9-8.9,19.7-13.4,32.3-13.4h201c2.7,0,4.9-0.9,6.6-2.6c1.7-1.7,2.6-3.9,2.6-6.6V45.7c0-2.7-0.9-4.9-2.6-6.6
			c-1.7-1.7-3.9-2.6-6.6-2.6h-201c-22.6,0-42,8-58.1,24.1C8,76.8,0,96.1,0,118.8v237.5c0,22.6,8,42,24.1,58.1
			c16.1,16.1,35.5,24.1,58.1,24.1h237.5c22.6,0,42-8,58.1-24.1C394,398.3,402,379,402,356.3V265c0-2.7-0.9-4.9-2.6-6.6
			C397.7,256.7,395.5,255.8,392.9,255.8z"/>
		<path d="M506.2,5.4c-3.6-3.6-7.9-5.4-12.9-5.4H347.2c-4.9,0-9.2,1.8-12.8,5.4c-3.6,3.6-5.4,7.9-5.4,12.8s1.8,9.2,5.4,12.8
			l50.2,50.2L198.4,267.5c-1.9,1.9-2.9,4.1-2.9,6.6c0,2.5,1,4.7,2.9,6.6l32.5,32.5c1.9,1.9,4.1,2.9,6.6,2.9s4.7-0.9,6.6-2.9
			l186.1-186.1l50.3,50.2c3.6,3.6,7.9,5.4,12.8,5.4s9.2-1.8,12.9-5.4c3.6-3.6,5.4-7.9,5.4-12.8V18.3C511.6,13.3,509.8,9,506.2,5.4z"
			/>
	</g>
</g>
</svg>
