<?xml version="1.0" encoding="utf-8"?>
<!-- Generator: Adobe Illustrator 22.0.1, SVG Export Plug-In . SVG Version: 6.00 Build 0)  -->
<svg version="1.1"
	 id="svg2" inkscape:version="0.48.3.1 r9886" sodipodi:docname="list_font_awesome.svg" xmlns:cc="http://creativecommons.org/ns#" xmlns:dc="http://purl.org/dc/elements/1.1/" xmlns:inkscape="http://www.inkscape.org/namespaces/inkscape" xmlns:rdf="http://www.w3.org/1999/02/22-rdf-syntax-ns#" xmlns:sodipodi="http://sodipodi.sourceforge.net/DTD/sodipodi-0.dtd" xmlns:svg="http://www.w3.org/2000/svg"
	 xmlns="http://www.w3.org/2000/svg" xmlns:xlink="http://www.w3.org/1999/xlink" x="0px" y="0px" viewBox="0 0 22.3 17.5"
	 style="enable-background:new 0 0 22.3 17.5;" xml:space="preserve">
<sodipodi:namedview  bordercolor="#666666" borderopacity="1" gridtolerance="10" guidetolerance="10" id="namedview8" inkscape:current-layer="svg2" inkscape:cx="896" inkscape:cy="896" inkscape:pageopacity="0" inkscape:pageshadow="2" inkscape:window-height="480" inkscape:window-maximized="0" inkscape:window-width="640" inkscape:window-x="0" inkscape:window-y="25" inkscape:zoom="0.13169643" objecttolerance="10" pagecolor="#ffffff" showgrid="false">
	</sodipodi:namedview>
<g id="g4" transform="matrix(1,0,0,-1,30.372881,1373.7966)">
	<path id="path6" inkscape:connector-curvature="0" d="M-27.2,1359.1v-2.4c0-0.1,0-0.2-0.1-0.3s-0.2-0.1-0.3-0.1H-30
		c-0.1,0-0.2,0-0.3,0.1c-0.1,0.1-0.1,0.2-0.1,0.3v2.4c0,0.1,0,0.2,0.1,0.3c0.1,0.1,0.2,0.1,0.3,0.1h2.4c0.1,0,0.2,0,0.3-0.1
		S-27.2,1359.2-27.2,1359.1z M-27.2,1363.9v-2.4c0-0.1,0-0.2-0.1-0.3s-0.2-0.1-0.3-0.1H-30c-0.1,0-0.2,0-0.3,0.1
		c-0.1,0.1-0.1,0.2-0.1,0.3v2.4c0,0.1,0,0.2,0.1,0.3c0.1,0.1,0.2,0.1,0.3,0.1h2.4c0.1,0,0.2,0,0.3-0.1S-27.2,1364-27.2,1363.9z
		 M-27.2,1368.6v-2.4c0-0.1,0-0.2-0.1-0.3s-0.2-0.1-0.3-0.1H-30c-0.1,0-0.2,0-0.3,0.1c-0.1,0.1-0.1,0.2-0.1,0.3v2.4
		c0,0.1,0,0.2,0.1,0.3c0.1,0.1,0.2,0.1,0.3,0.1h2.4c0.1,0,0.2,0,0.3-0.1S-27.2,1368.7-27.2,1368.6z M-8.1,1359.1v-2.4
		c0-0.1,0-0.2-0.1-0.3s-0.2-0.1-0.3-0.1h-16.7c-0.1,0-0.2,0-0.3,0.1s-0.1,0.2-0.1,0.3v2.4c0,0.1,0,0.2,0.1,0.3s0.2,0.1,0.3,0.1h16.7
		c0.1,0,0.2,0,0.3-0.1S-8.1,1359.2-8.1,1359.1z M-27.2,1373.4v-2.4c0-0.1,0-0.2-0.1-0.3s-0.2-0.1-0.3-0.1H-30c-0.1,0-0.2,0-0.3,0.1
		c-0.1,0.1-0.1,0.2-0.1,0.3v2.4c0,0.1,0,0.2,0.1,0.3c0.1,0.1,0.2,0.1,0.3,0.1h2.4c0.1,0,0.2,0,0.3-0.1S-27.2,1373.5-27.2,1373.4z
		 M-8.1,1363.9v-2.4c0-0.1,0-0.2-0.1-0.3s-0.2-0.1-0.3-0.1h-16.7c-0.1,0-0.2,0-0.3,0.1s-0.1,0.2-0.1,0.3v2.4c0,0.1,0,0.2,0.1,0.3
		s0.2,0.1,0.3,0.1h16.7c0.1,0,0.2,0,0.3-0.1S-8.1,1364-8.1,1363.9z M-8.1,1368.6v-2.4c0-0.1,0-0.2-0.1-0.3s-0.2-0.1-0.3-0.1h-16.7
		c-0.1,0-0.2,0-0.3,0.1s-0.1,0.2-0.1,0.3v2.4c0,0.1,0,0.2,0.1,0.3s0.2,0.1,0.3,0.1h16.7c0.1,0,0.2,0,0.3-0.1S-8.1,1368.7-8.1,1368.6
		z M-8.1,1373.4v-2.4c0-0.1,0-0.2-0.1-0.3s-0.2-0.1-0.3-0.1h-16.7c-0.1,0-0.2,0-0.3,0.1s-0.1,0.2-0.1,0.3v2.4c0,0.1,0,0.2,0.1,0.3
		s0.2,0.1,0.3,0.1h16.7c0.1,0,0.2,0,0.3-0.1S-8.1,1373.5-8.1,1373.4z"/>
</g>
</svg>
