<?xml version="1.0" encoding="utf-8"?>
<!-- Generator: Adobe Illustrator 22.0.1, SVG Export Plug-In . SVG Version: 6.00 Build 0)  -->
<svg version="1.1" id="Capa_1" xmlns="http://www.w3.org/2000/svg" xmlns:xlink="http://www.w3.org/1999/xlink" x="0px" y="0px"
	 viewBox="0 0 64 64" style="enable-background:new 0 0 64 64;" xml:space="preserve">
<g>
	<g>
		<g id="circle_18_">
			<g>
				<path d="M32,0C14.3,0,0,14.3,0,32s14.3,32,32,32s32-14.3,32-32S49.7,0,32,0z M32,62C15.4,62,2,48.6,2,32C2,15.4,15.4,2,32,2
					s30,13.4,30,30C62,48.6,48.6,62,32,62z"/>
			</g>
		</g>
		<g id="play">
			<g>
				<path d="M41.1,30.3l-12-8c-0.6-0.4-1.4-0.4-2.1-0.1c-0.7,0.3-1.1,1-1.1,1.8v16c0,0.7,0.4,1.4,1.1,1.8c0.6,0.3,1.4,0.3,2.1-0.1
					l12-8c0.6-0.4,0.9-1,0.9-1.7C42,31.3,41.7,30.7,41.1,30.3z M38.8,33.4l-9.4,5.8c-0.5,0.3-1.4,0.4-1.4,0.4s0-0.9,0-1.5V26
					c0-0.6,0-1.7,0-1.7s0.9,0,1.4,0.3l9.4,6.2c0.5,0.3,0.7,0.7,0.7,1.2C39.5,32.6,39.3,33.1,38.8,33.4z"/>
			</g>
		</g>
	</g>
</g>
</svg>
